<svg xmlns="http://www.w3.org/2000/svg" viewBox="0 0 716.1 654"><title>flyandi-logo</title><g id="Layer_2" data-name="Layer 2"><g id="Raw"><path d="M707.79,468.18l-81.2-223.1a138.59,138.59,0,0,0-94.3-86.25C524.06,70.09,448.85,0,358.05,0h0C268.66,0,194.38,67.93,184.24,154.72a138.6,138.6,0,0,0-94.73,86.37L8.31,464.18c-26.05,71.58,11.2,151.45,82.77,177.51h0c54.14,19.71,113,3.19,149.78-37A174.25,174.25,0,0,0,358.05,650h0a174.18,174.18,0,0,0,115.19-43.55c36.59,41.8,96.64,59.3,151.77,39.23h0C696.6,619.63,733.84,539.76,707.79,468.18ZM309.24,333.74,236.19,534.44C217.44,586,160,612.77,108.44,594h0c-51.51-18.75-78.32-76.24-59.57-127.75l73.05-200.71C140.66,214,198.15,187.23,249.67,206h0C301.18,224.73,328,282.22,309.24,333.74ZM607.67,598h0c-51.51,18.75-109-8.06-127.75-59.57L406.86,337.74c-18.75-51.51,8.06-109,59.57-127.75h0c51.51-18.75,109,8.06,127.75,59.57l73.05,200.71C686,521.78,659.18,579.27,607.67,598Z"/></g></g></svg>