<svg xmlns="http://www.w3.org/2000/svg" viewBox="0 0 815.06 835.25"><defs><style>.cls-1,.cls-2,.cls-3,.cls-4{fill:none;stroke:#000;stroke-miterlimit:10;}.cls-1{stroke-width:5.06px;}.cls-2{stroke-width:3.84px;}.cls-3{stroke-width:5px;}.cls-4{stroke-width:3px;}</style></defs><title>shape-paramotor</title><g id="Layer_2" data-name="Layer 2"><g id="Paramotor"><circle class="cls-1" cx="407.53" cy="407.53" r="405"/><circle class="cls-2" cx="407.53" cy="447.53" r="40"/><polygon class="cls-3" points="810.94 384.9 810.94 370.16 508.38 370.16 508.38 332.75 306.68 332.75 306.68 370.16 4.12 370.16 4.12 384.9 306.68 384.9 306.68 437.53 210.94 437.53 210.94 457.53 306.68 457.53 306.68 832.75 508.38 832.75 508.38 457.53 610.94 457.53 610.94 437.53 508.38 437.53 508.38 384.9 810.94 384.9"/><polygon class="cls-4" points="295.63 628.78 295.63 495.03 286.88 495.03 286.88 680.03 295.63 680.03 295.63 651.28 306.88 651.28 306.88 628.78 295.63 628.78"/><polygon class="cls-4" points="519.72 628.78 519.72 495.03 528.47 495.03 528.47 680.03 519.72 680.03 519.72 651.28 508.47 651.28 508.47 628.78 519.72 628.78"/></g></g></svg>