<svg xmlns="http://www.w3.org/2000/svg" viewBox="0 0 905 632.06"><defs><style>.cls-1{fill:none;stroke:#000;stroke-miterlimit:10;stroke-width:5px;}</style></defs><title>shape-plane_1</title><g id="Layer_2" data-name="Layer 2"><g id="Plane"><g id="tTA9Yv.tif"><path class="cls-1" d="M2.5,155.17c5.11-7.36,11.61-10.8,21.1-11.09,62-1.92,124-5.15,186-6.6,62.63-1.47,125.3-1.37,188-2,3.19,0,6.39,0,10.55,0,.67-8.42,1.44-16.44,1.93-24.47,1.41-23.37,2.68-46.76,4.08-70.13.63-10.59,5.39-17.71,15.13-18.52,10-.84,11.89-7.28,14.9-15.93H368.57l-.3-3a61.25,61.25,0,0,1,7.25-.87c18.45-.07,36.9,0,55.35-.07,5.94,0,17.83,0,18.52,0h87.11c0,1,0,2.5.05,3.5H460.74c3.08,9.11,5,15.43,15,16.41,10.19,1,14.55,8,15.22,19.36,1.81,30.94,3.67,61.88,5.56,93.75,3.75,0,6.9,0,10.06,0,54.76.2,109.55-.54,164.29.83,71.38,1.79,142.71,5.32,214.06,7.9,8.3.3,13.11,5.06,17.59,10.91v87.89c-21.15,2.59-42.34,4.85-63.43,7.83-64.29,9.08-128.52,18.64-192.85,27.5-11.22,1.55-22.8.7-34.21.72q-54.47.1-109,0H491.88L468.44,481.92c17.65,3.06,34.84,6.05,52,9,18.45,3.16,36.87,6.54,55.38,9.3,8.25,1.23,13.59,5.71,13.7,13.4A386.91,386.91,0,0,1,587.51,557c-.61,6.23-5.39,9.43-12.27,10.37-29.55,4-59,8.57-88.53,13.07-4.94.75-8-.22-10.28-5.26-3.64-8.21-8.12-16.05-13.25-26-.85,4.11-1.5,6.17-1.68,8.28-1.82,21-3.46,42-5.45,63-.22,2.27-2.29,4.37-3.5,6.55-1.24-2.15-3.37-4.21-3.59-6.45-2-21-3.63-42-5.43-63-.17-2-.65-3.92-1.45-8.58-5.29,10.12-9.81,18-13.49,26.15-2.24,5-5.29,6.06-10.26,5.3-29.49-4.51-59-9.06-88.52-13.06-6.91-.94-11.63-4.18-12.29-10.34a363.84,363.84,0,0,1-2.27-42.5c.1-9.08,6.49-13.24,15.56-14.67,32.35-5.11,64.62-10.76,96.91-16.24,2.59-.44,5.13-1.11,8.66-1.89-1.18-11-2.28-21.93-3.55-32.84-6.26-53.77-12.75-107.52-18.61-161.33-.78-7.12-3.25-8.58-9.63-8.53-30.16.24-60.37-.82-90.49.33C271.94,281,230.64,275,189.23,268.81c-58.14-8.68-116.34-17-174.54-25.34-4-.57-8.13-.29-12.2-.4Z"/></g></g></g></svg>