<svg xmlns="http://www.w3.org/2000/svg" viewBox="0 0 455 905"><defs><style>.cls-1,.cls-2{fill:none;stroke:#000;stroke-miterlimit:10;}.cls-1{stroke-width:5px;}.cls-2{stroke-width:2px;}</style></defs><title>shape-car_1</title><g id="Layer_2" data-name="Layer 2"><g id="Car"><path class="cls-1" d="M2.5,386.5q0-6,0-12c4.15-10.15,11.69-16.31,22.21-19.11,2.64-.7,5.06-2.26,7.7-2.86,4.74-1.08,6.19-3.73,6-8.53-.36-11.73-.08-23.48-.2-35.23-.27-24.56.22-48.8-6.63-73.23C24,208.2,27,179.44,30.51,151.39,34.36,121,44.2,92.6,63.43,68.16c27.89-35.44,65.65-53.45,109.12-61.1,10.27-1.81,20.64-3.06,31-4.57h48c1.9.47,3.78,1.08,5.71,1.39,13.54,2.14,27.31,3.32,40.6,6.49,39.9,9.52,74,28.89,97.64,63.29,33.42,48.53,35.15,103.25,28.95,159.09-1.39,12.47-6.59,24.62-7.23,37.06-1.23,23.93-.17,48-.71,71.94-.15,6.7,1.91,9.89,8.17,11.7,11.87,3.44,23.19,7.94,27.86,21v12l-6.73,15-29.2-6.62c0,3.61.05,6.08,0,8.55-2.07,89,3,177.83,8.1,266.66,1.38,23.84.4,48-1.72,71.83-3.72,41.89-14.55,82.47-25.67,122.95-3.38,12.33-10.31,20.23-22.14,22.65q-33.64,6.88-67.68,11.77c-14,2-28.29,2.21-42.45,3.22H190c-14.15-1-28.42-1.2-42.43-3.22q-34.36-4.95-68.4-12C68,885,60.39,877.56,58,865.57c-1.31-6.59-3.62-13-5.35-19.48-12.36-46.67-23.61-93.67-22.87-142.27C30.4,663.87,34,624,35.11,584c1.65-61.44,2.27-122.9,3.29-184.36a31.09,31.09,0,0,0-.72-4.71L9.25,401.54ZM60.41,90.87m56.26-29.44M127.23,35c-16.58,7.82-30.44,16.93-42.45,29.77C102.35,65.86,121.9,52.51,127.23,35Zm200.9.82c4.59,16.44,23.77,29.68,41.26,29.14C362.7,55.23,342.76,41,328.13,35.78Z"/><path class="cls-2" d="M227.12,405.57q48,0,95.92,0c10,0,19.54-2.09,24.88-11,5.18-8.64,9.9-18,12.38-27.69,4.33-16.88,6.66-34.26,10.07-51.38,3.34-16.77-.62-31.68-11-45-13.21-17.05-31.34-26.93-51.26-33.52-41.87-13.86-84.73-15.24-128-8.3-26.15,4.2-51.08,12-72,29C91.08,271.57,80.64,289,84.07,311.79,87.12,332,91.16,352.09,95.69,372c5.52,24.3,17.75,33.55,42.25,33.55Z"/><path class="cls-2" d="M227.5,680c-28,0-56-.15-84,.05-20.33.15-30.59,12.75-27.29,32.7,3.21,19.46,6.87,38.87,9.15,58.45,2,17,10.65,29.06,24.89,36.93C198,834.53,247.07,834.87,296.32,813c16.6-7.39,30-18.79,32.88-38.78,2.87-20.27,6.25-40.46,9.46-60.68,3.4-21.47-6.7-33.38-28.67-33.46C282.49,680,255,680,227.5,680Z"/><path class="cls-1" d="M227.12,405.57H137.94c-24.5,0-36.73-9.25-42.25-33.55-4.53-19.93-8.57-40-11.62-60.23-3.44-22.74,7-40.22,24.07-54.1,21-17.06,45.89-24.83,72-29,43.25-6.94,86.11-5.56,128,8.3,19.92,6.59,38.05,16.47,51.26,33.52,10.33,13.33,14.29,28.24,11,45-3.41,17.12-5.74,34.51-10.07,51.38-2.48,9.68-7.21,19.06-12.38,27.69-5.34,8.91-14.93,11-24.88,11Q275.08,405.55,227.12,405.57Z"/><path class="cls-1" d="M227.5,680c27.5,0,55-.07,82.49,0,22,.07,32.07,12,28.67,33.46-3.2,20.22-6.58,40.41-9.46,60.68-2.83,20-16.28,31.4-32.88,38.78-49.25,21.91-98.31,21.57-146.06-4.81-14.25-7.87-22.91-19.93-24.89-36.93-2.28-19.57-5.94-39-9.15-58.45-3.29-19.95,7-32.55,27.29-32.7C171.5,679.88,199.5,680,227.5,680Z"/></g></g></svg>